<svg xmlns="http://www.w3.org/2000/svg" width="440" height="300" viewBox="0 0 440 300">
  <style>
    .ink { stroke:#d8d8d8; fill:none; stroke-width:2.2; stroke-linecap:round; }
    .ink-thin { stroke:#d8d8d8; fill:none; stroke-width:1.6; stroke-linecap:round; }
    .txt { fill:#d8d8d8; stroke:none; font-family:Georgia,'Times New Roman',serif; font-style:italic; }
    .fill { fill:#d8d8d8; stroke:none; }
    .hl { stroke:#d8d8d8; }
    .dashed { stroke-dasharray:7 6; }
    @media (prefers-color-scheme: light) {
      .ink, .ink-thin { stroke:#1a1a1a; }
      .txt, .fill { fill:#1a1a1a; }
      .hl { stroke:#1a1a1a; }
    }
  </style>
  <line class="ink" x1="146.6" y1="33.7" x2="98.4" y2="86.3"/>
  <line class="ink" x1="153.4" y1="33.7" x2="201.6" y2="86.3"/>
  <line class="ink" x1="93.4" y1="94.7" x2="76.6" y2="145.3"/>
  <line class="ink" x1="77.2" y1="154.5" x2="102.8" y2="205.5"/>
  <line class="ink" x1="202.5" y1="94.3" x2="172.5" y2="145.7"/>
  <line class="ink" x1="207.5" y1="94.3" x2="237.5" y2="145.7"/>
  <line class="ink" x1="238.1" y1="154.6" x2="216.9" y2="205.4"/>
  <line class="ink" x1="217.5" y1="214.3" x2="247.5" y2="265.7"/>
  <circle class="fill" cx="150" cy="30" r="5"/>
  <circle class="fill" cx="95" cy="90" r="5"/>
  <circle class="fill" cx="205" cy="90" r="5"/>
  <circle class="fill" cx="75" cy="150" r="5"/>
  <circle class="fill" cx="105" cy="210" r="5"/>
  <circle class="fill" cx="170" cy="150" r="5"/>
  <circle class="fill" cx="240" cy="150" r="5"/>
  <circle class="fill" cx="215" cy="210" r="5"/>
  <circle class="fill" cx="250" cy="270" r="5"/>
  <text class="txt" x="300" y="125" font-size="20">height = 4</text>
</svg>
