<svg xmlns="http://www.w3.org/2000/svg" width="700" height="185" viewBox="0 0 700 185">
  <style>
    .ink { stroke:#d8d8d8; fill:none; stroke-width:2.2; stroke-linecap:round; }
    .ink-thin { stroke:#d8d8d8; fill:none; stroke-width:1.6; stroke-linecap:round; }
    .txt { fill:#d8d8d8; stroke:none; font-family:Georgia,'Times New Roman',serif; font-style:italic; }
    .fill { fill:#d8d8d8; stroke:none; }
    .hl { stroke:#d8d8d8; }
    .dashed { stroke-dasharray:7 6; }
    @media (prefers-color-scheme: light) {
      .ink, .ink-thin { stroke:#1a1a1a; }
      .txt, .fill { fill:#1a1a1a; }
      .hl { stroke:#1a1a1a; }
    }
  </style>

  <!-- vertex positions per panel: C(85,82) TL(57,36) TR(113,36) R(141,82) BR(113,128) BL(57,128) L(29,82) -->

  <!-- (a) star of all spokes -->
  <g transform="translate(0,0)">
    <path class="ink" d="M 85 82 L 57 36 M 85 82 L 113 36 M 85 82 L 29 82 M 85 82 L 141 82 M 85 82 L 57 128 M 85 82 L 113 128"/>
    <circle class="fill" cx="85" cy="82" r="4.5"/><circle class="fill" cx="57" cy="36" r="4.5"/><circle class="fill" cx="113" cy="36" r="4.5"/><circle class="fill" cx="141" cy="82" r="4.5"/><circle class="fill" cx="113" cy="128" r="4.5"/><circle class="fill" cx="57" cy="128" r="4.5"/><circle class="fill" cx="29" cy="82" r="4.5"/>
    <text class="txt" x="46" y="56" font-size="13">e<tspan dy="3" font-size="10">4</tspan></text>
    <text class="txt" x="106" y="56" font-size="13">e<tspan dy="3" font-size="10">8</tspan></text>
    <text class="txt" x="46" y="78" font-size="13">e<tspan dy="3" font-size="10">3</tspan></text>
    <text class="txt" x="108" y="78" font-size="13">e<tspan dy="3" font-size="10">10</tspan></text>
    <text class="txt" x="44" y="114" font-size="13">e<tspan dy="3" font-size="10">5</tspan></text>
    <text class="txt" x="104" y="114" font-size="13">e<tspan dy="3" font-size="10">9</tspan></text>
    <text class="txt" x="76" y="168" font-size="17">(a)</text>
  </g>

  <!-- (b) path e1 e6 e11 e10 e5 e7 -->
  <g transform="translate(175,0)">
    <path class="ink" d="M 29 82 L 57 36 L 113 36 L 141 82 L 85 82 M 85 82 L 57 128 L 113 128"/>
    <circle class="fill" cx="85" cy="82" r="4.5"/><circle class="fill" cx="57" cy="36" r="4.5"/><circle class="fill" cx="113" cy="36" r="4.5"/><circle class="fill" cx="141" cy="82" r="4.5"/><circle class="fill" cx="113" cy="128" r="4.5"/><circle class="fill" cx="57" cy="128" r="4.5"/><circle class="fill" cx="29" cy="82" r="4.5"/>
    <text class="txt" x="14" y="58" font-size="13">e<tspan dy="3" font-size="10">1</tspan></text>
    <text class="txt" x="77" y="30" font-size="13">e<tspan dy="3" font-size="10">6</tspan></text>
    <text class="txt" x="130" y="58" font-size="13">e<tspan dy="3" font-size="10">11</tspan></text>
    <text class="txt" x="102" y="78" font-size="13">e<tspan dy="3" font-size="10">10</tspan></text>
    <text class="txt" x="44" y="112" font-size="13">e<tspan dy="3" font-size="10">5</tspan></text>
    <text class="txt" x="77" y="146" font-size="13">e<tspan dy="3" font-size="10">7</tspan></text>
    <text class="txt" x="76" y="168" font-size="17">(b)</text>
  </g>

  <!-- (c) e6 e4 e10 e5 e2 e7 -->
  <g transform="translate(350,0)">
    <path class="ink" d="M 57 36 L 113 36 M 85 82 L 57 36 M 85 82 L 141 82 M 85 82 L 57 128 M 29 82 L 57 128 L 113 128"/>
    <circle class="fill" cx="85" cy="82" r="4.5"/><circle class="fill" cx="57" cy="36" r="4.5"/><circle class="fill" cx="113" cy="36" r="4.5"/><circle class="fill" cx="141" cy="82" r="4.5"/><circle class="fill" cx="113" cy="128" r="4.5"/><circle class="fill" cx="57" cy="128" r="4.5"/><circle class="fill" cx="29" cy="82" r="4.5"/>
    <text class="txt" x="77" y="30" font-size="13">e<tspan dy="3" font-size="10">6</tspan></text>
    <text class="txt" x="46" y="56" font-size="13">e<tspan dy="3" font-size="10">4</tspan></text>
    <text class="txt" x="104" y="78" font-size="13">e<tspan dy="3" font-size="10">10</tspan></text>
    <text class="txt" x="44" y="108" font-size="13">e<tspan dy="3" font-size="10">5</tspan></text>
    <text class="txt" x="14" y="110" font-size="13">e<tspan dy="3" font-size="10">2</tspan></text>
    <text class="txt" x="77" y="146" font-size="13">e<tspan dy="3" font-size="10">7</tspan></text>
    <text class="txt" x="76" y="168" font-size="17">(c)</text>
  </g>

  <!-- (d) e3 e4 e5 e10 e11 e12 -->
  <g transform="translate(525,0)">
    <path class="ink" d="M 85 82 L 29 82 M 85 82 L 57 36 M 85 82 L 57 128 M 85 82 L 141 82 M 113 36 L 141 82 L 113 128"/>
    <circle class="fill" cx="85" cy="82" r="4.5"/><circle class="fill" cx="57" cy="36" r="4.5"/><circle class="fill" cx="113" cy="36" r="4.5"/><circle class="fill" cx="141" cy="82" r="4.5"/><circle class="fill" cx="113" cy="128" r="4.5"/><circle class="fill" cx="57" cy="128" r="4.5"/><circle class="fill" cx="29" cy="82" r="4.5"/>
    <text class="txt" x="46" y="78" font-size="13">e<tspan dy="3" font-size="10">3</tspan></text>
    <text class="txt" x="46" y="56" font-size="13">e<tspan dy="3" font-size="10">4</tspan></text>
    <text class="txt" x="44" y="112" font-size="13">e<tspan dy="3" font-size="10">5</tspan></text>
    <text class="txt" x="102" y="78" font-size="13">e<tspan dy="3" font-size="10">10</tspan></text>
    <text class="txt" x="130" y="58" font-size="13">e<tspan dy="3" font-size="10">11</tspan></text>
    <text class="txt" x="128" y="112" font-size="13">e<tspan dy="3" font-size="10">12</tspan></text>
    <text class="txt" x="76" y="168" font-size="17">(d)</text>
  </g>
</svg>
